<svg version="1.1" id="Layer_1" xmlns="http://www.w3.org/2000/svg" xmlns:xlink="http://www.w3.org/1999/xlink" x="0px" y="0px" viewBox="0 0 511.998 511.998" style="enable-background:new 0 0 511.998 511.998;" xml:space="preserve" width="300" height="300" xmlns:svgjs="http://svgjs.dev/svgjs"><g width="100%" height="100%" transform="matrix(1,0,0,1,0,0)"><g>
	<g>
		<path d="M487.585,69.293l-103.587-0.002c-13.482,0-24.415,10.931-24.415,24.415c0,13.485,10.932,24.415,24.415,24.415&#10;&#9;&#9;&#9;l44.646,0.002l-113.701,113.7l-51.791-51.793c-4.579-4.579-10.788-7.152-17.263-7.152c-6.475,0-12.686,2.573-17.263,7.152&#10;&#9;&#9;&#9;L97.661,310.993V36.263c0-13.484-10.931-24.415-24.415-24.415h-48.83C10.931,11.848,0,22.779,0,36.263&#10;&#9;&#9;&#9;c0,13.484,10.931,24.415,24.415,24.415H48.83v146.491H24.415C10.931,207.169,0,218.1,0,231.584s10.931,24.415,24.415,24.415H48.83&#10;&#9;&#9;&#9;v113.929c0,0.005,0,0.011,0,0.016v32.545H24.415C10.931,402.49,0,413.421,0,426.905c0,13.484,10.931,24.415,24.415,24.415H48.83&#10;&#9;&#9;&#9;v24.415c0,13.484,10.931,24.415,24.415,24.415c13.484,0,24.415-10.931,24.415-24.415V451.32h146.491v24.415&#10;&#9;&#9;&#9;c0,13.484,10.931,24.415,24.415,24.415c13.484,0,24.415-10.931,24.415-24.415V451.32h146.491v24.415&#10;&#9;&#9;&#9;c0,13.484,10.932,24.415,24.415,24.415s24.415-10.931,24.415-24.415v-48.83c0-13.484-10.931-24.415-24.415-24.415H97.661v-22.441&#10;&#9;&#9;&#9;l148.226-148.226l51.791,51.793c4.579,4.579,10.788,7.152,17.265,7.152s12.686-2.573,17.263-7.152l130.963-130.963v44.642&#10;&#9;&#9;&#9;c0,13.484,10.931,24.415,24.415,24.415c13.484,0,24.415-10.932,24.415-24.415V93.709C512,80.225,501.069,69.293,487.585,69.293z" fill="#ffffff" fill-opacity="1" data-original-color="#000000ff" stroke="none" stroke-opacity="1"/>
	</g>
</g><g>
</g><g>
</g><g>
</g><g>
</g><g>
</g><g>
</g><g>
</g><g>
</g><g>
</g><g>
</g><g>
</g><g>
</g><g>
</g><g>
</g><g>
</g></g></svg>