<svg height="300" viewBox="0 0 512 512.00044" width="300" xmlns="http://www.w3.org/2000/svg" version="1.1" xmlns:xlink="http://www.w3.org/1999/xlink" xmlns:svgjs="http://svgjs.dev/svgjs"><g width="100%" height="100%" transform="matrix(1,0,0,1,0,0)"><path d="m451 193.269531c0-51.785156-20.285156-100.4375-57.117188-137-36.90625-36.632812-85.851562-56.613281-137.804687-56.26562475-.449219-.00390625-.882813-.00390625-1.332031-.00390625-51.839844 0-100.667969 20.152344-137.621094 56.832031-36.839844 36.566407-57.125 85.019531-57.125 136.4375 0 77.351563 44.40625 119.023438 76.832031 149.453125 22.425781 21.046875 36.167969 34.734375 36.167969 50.277344v59c0 33.085938 26.914062 60 60 60h45c33.082031 0 60-26.914062 60-60v-64.089844c2.257812-11.535156 12.160156-22.886718 28.65625-38.578125 8.003906-7.613281 8.320312-20.269531.707031-28.273437s-20.273437-8.324219-28.273437-.707032c-.367188.34375-.726563.691407-1.089844 1.039063v-74.027344c0-14.027343-4.582031-28.738281-13.246094-42.535156l-52.882812-85.359375c-3.644532-5.886719-10.078125-9.464844-17-9.464844-.007813 0-.015625 0-.023438 0-6.929687.007813-13.363281 3.601563-17 9.503906l-52.621094 85.351563c-8 12.75-12.226562 27.449219-12.226562 42.503906v74.503907c-2.890625-2.765626-5.832031-5.53125-8.796875-8.3125-31.5625-29.621094-64.203125-60.25-64.203125-120.285157 0-40.675781 16.089844-79.046875 45.304688-108.050781 29.40625-29.1875 68.230468-45.21875 109.449218-45.21875.394532 0 .785156.003906 1.175782.003906.097656.003906.199218.003906.296874 0 .390626 0 .777344-.003906 1.167969-.003906 40.84375 0 79.269531 15.832031 108.308594 44.65625 28.210937 28.003906 44.179687 64.9375 45.242187 104.402344-.292968 1.355468-.445312 2.765625-.445312 4.207031 0 23.132813-4.648438 43.230469-14.207031 61.4375-5.132813 9.78125-1.371094 21.871094 8.410156 27.007813 9.78125 5.132812 21.871094 1.367187 27.003906-8.410157 11.980469-22.816406 18.125-47.507812 18.742188-75.351562.359375-1.5.550781-3.070313.550781-4.679688zm-206.621094-8.140625h21.117188l24.023437 38.773438h-69.042969zm53.621094 78.773438v120.785156c-.289062 2.375-.445312 4.816406-.480469 7.3125h-84.519531v-128.097656zm-20 208.097656h-45c-11.027344 0-20-8.972656-20-20v-20h85v20c0 11.027344-8.972656 20-20 20zm-258-256.582031c-11.046875 0-20-8.953125-20-20 0-11.042969 8.953125-20 20-20s20 8.957031 20 20c0 11.046875-8.953125 20-20 20zm492-20c0 11.046875-8.953125 20-20 20s-20-8.953125-20-20c0-11.042969 8.953125-20 20-20s20 8.957031 20 20zm-65-111.417969c0-11.042969 8.953125-20 20-20s20 8.957031 20 20c0 11.046875-8.953125 20-20 20s-20-8.953125-20-20zm-422 0c0-11.042969 8.953125-20 20-20s20 8.957031 20 20c0 11.046875-8.953125 20-20 20s-20-8.953125-20-20zm462 219c0 11.046875-8.953125 20-20 20s-20-8.953125-20-20 8.953125-20 20-20 20 8.953125 20 20zm-422 0c0 11.046875-8.953125 20-20 20s-20-8.953125-20-20 8.953125-20 20-20 20 8.953125 20 20zm0 0" fill="#ffffff" fill-opacity="1" data-original-color="#000000ff" stroke="none" stroke-opacity="1"/></g></svg>