<svg id="Layer_1" height="300" viewBox="0 0 34 34" width="300" xmlns="http://www.w3.org/2000/svg" version="1.1" xmlns:xlink="http://www.w3.org/1999/xlink" xmlns:svgjs="http://svgjs.dev/svgjs"><g width="100%" height="100%" transform="matrix(1,0,0,1,0,0)"><g><path d="m6.5 33h21c3.033 0 5.5-2.467 5.5-5.5v-21c0-3.033-2.467-5.5-5.5-5.5h-21c-3.033 0-5.5 2.467-5.5 5.5v21c0 3.033 2.467 5.5 5.5 5.5zm21-3h-21c-1.378 0-2.5-1.122-2.5-2.5v-14.5h26v14.5c0 1.378-1.122 2.5-2.5 2.5zm-21-26h21c1.378 0 2.5 1.122 2.5 2.5v3.5h-26v-3.5c0-1.378 1.122-2.5 2.5-2.5z" fill="#ffffff" fill-opacity="1" data-original-color="#000000ff" stroke="none" stroke-opacity="1"/><path d="m8.062 8.06c.585-.586.586-1.534 0-2.12-.56-.56-1.56-.56-2.12 0-.587.587-.586 1.533 0 2.12.586.585 1.533.585 2.12 0z" fill="#ffffff" fill-opacity="1" data-original-color="#000000ff" stroke="none" stroke-opacity="1"/><path d="m12.562 8.06c.585-.586.586-1.534 0-2.12-.56-.56-1.57-.56-2.12 0-.587.587-.586 1.533 0 2.12.589.589 1.535.584 2.12 0z" fill="#ffffff" fill-opacity="1" data-original-color="#000000ff" stroke="none" stroke-opacity="1"/><path d="m24.06 16.439c-.586-.586-1.535-.586-2.121 0s-.586 1.536 0 2.121l2.94 2.94-2.94 2.939c-.586.586-.586 1.536 0 2.121.586.586 1.535.586 2.121 0l4-4c.586-.585.586-1.536 0-2.121z" fill="#ffffff" fill-opacity="1" data-original-color="#000000ff" stroke="none" stroke-opacity="1"/><path d="m12.061 16.439c-.586-.586-1.535-.586-2.121 0l-4 4c-.586.586-.586 1.536 0 2.121l4 4c.586.586 1.535.586 2.121 0 .586-.585.586-1.536 0-2.121l-2.94-2.939 2.939-2.94c.586-.585.586-1.535.001-2.121z" fill="#ffffff" fill-opacity="1" data-original-color="#000000ff" stroke="none" stroke-opacity="1"/><path d="m19.493 14.583c-.782-.272-1.637.141-1.91.924l-4 11.5c-.272.782.142 1.637.924 1.91.78.271 1.636-.138 1.91-.924l4-11.5c.272-.783-.142-1.638-.924-1.91z" fill="#ffffff" fill-opacity="1" data-original-color="#000000ff" stroke="none" stroke-opacity="1"/><path d="m20 8.5h7c.829 0 1.5-.671 1.5-1.5s-.671-1.5-1.5-1.5h-7c-.829 0-1.5.671-1.5 1.5s.671 1.5 1.5 1.5z" fill="#ffffff" fill-opacity="1" data-original-color="#000000ff" stroke="none" stroke-opacity="1"/></g></g></svg>